<?xml version="1.0" standalone="no"?>
<!DOCTYPE svg PUBLIC "-//W3C//DTD SVG 20010904//EN"
 "http://www.w3.org/TR/2001/REC-SVG-20010904/DTD/svg10.dtd">
<svg version="1.0" xmlns="http://www.w3.org/2000/svg"
 width="64.000000pt" height="64.000000pt" viewBox="0 0 64.000000 64.000000"
 preserveAspectRatio="xMidYMid meet">

<g transform="translate(0.000000,64.000000) scale(0.100000,-0.100000)"
fill="#000000" stroke="none">
<path d="M120 585 c-7 -9 -19 -14 -26 -11 -14 5 -37 -17 -27 -27 3 -4 -2 -16
-12 -27 -17 -19 -17 -21 0 -40 10 -11 15 -23 12 -27 -10 -9 13 -34 25 -27 5 3
18 -2 29 -12 18 -16 20 -16 38 0 11 10 24 15 29 12 12 -7 35 18 25 27 -3 4 2
16 12 27 17 19 17 21 0 40 -10 11 -15 23 -12 27 10 10 -13 32 -27 27 -7 -3
-19 2 -26 11 -7 8 -16 15 -20 15 -4 0 -13 -7 -20 -15z m50 -60 c15 -18 10 -45
-12 -59 -35 -22 -74 27 -48 59 16 19 44 19 60 0z"/>
<path d="M124 509 c-10 -17 13 -36 27 -22 12 12 4 33 -11 33 -5 0 -12 -5 -16
-11z"/>
<path d="M260 500 c0 -19 6 -20 100 -20 l100 0 0 -30 c0 -24 4 -30 21 -30 18
0 20 5 17 48 l-3 47 -117 3 c-113 3 -118 2 -118 -18z"/>
<path d="M395 360 l-39 -40 42 -42 c33 -33 44 -40 54 -30 9 9 6 18 -17 42
l-29 30 28 29 c25 26 29 51 7 51 -4 0 -25 -18 -46 -40z"/>
<path d="M504 389 c-3 -6 6 -24 22 -40 l28 -29 -29 -30 c-23 -24 -26 -33 -17
-42 10 -10 21 -3 54 30 l42 42 -39 40 c-41 42 -50 46 -61 29z"/>
<path d="M460 190 l0 -30 -100 0 c-94 0 -100 -1 -100 -20 0 -20 5 -21 118 -18
l117 3 3 48 c3 42 1 47 -17 47 -17 0 -21 -6 -21 -30z"/>
<path d="M44 187 c-3 -8 -4 -34 -2 -58 3 -40 6 -44 33 -49 18 -3 30 -11 30
-20 0 -10 11 -15 35 -15 24 0 35 5 35 15 0 9 12 17 30 20 29 5 30 7 30 60 l0
55 -93 3 c-73 2 -94 0 -98 -11z"/>
</g>
</svg>
